# xmcd CD database file
#
# Track frame offsets:
#	150
#	11765
#	27938
#	41189
#	56302
#	68837
#	83966
#	96907
#	113680
#	126145
#	139108
#	152899
#
# Disc length: 2204 seconds
#
# Revision: 0
# Processed by: cddbd v1.4PL0 Copyright (c) Steve Scherf et al.
# Submitted via: CDex 1.50beta9
#
DISCID=9e089a0c
DTITLE=Bobby Hachey - 50 ans de country CD 1
DYEAR=1900
DGENRE=Country
TTITLE0=White Sport Coat
TTITLE1=Please Release Me
TTITLE2=Blue Moon
TTITLE3=Return to Me
TTITLE4=I Don't Wanna Cry
TTITLE5=Am I Losing You
TTITLE6=Don't Let Me Touch You
TTITLE7=Harbor Lights
TTITLE8=Near You
TTITLE9=She's Gone
TTITLE10=Fighting Side
TTITLE11=I'm Movin On
EXTD=
EXTT0=
EXTT1=
EXTT2=
EXTT3=
EXTT4=
EXTT5=
EXTT6=
EXTT7=
EXTT8=
EXTT9=
EXTT10=
EXTT11=
PLAYORDER=
